<svg width="48" height="48" viewBox="0 0 48 48" fill="none" xmlns="http://www.w3.org/2000/svg">
<path d="M15.54 20.019C13.852 17.943 12.268 17.498 10.786 18.682C8.56304 20.458 7.92504 26.65 9.71304 32.109C11.502 37.568 14.98 45.002 22.002 45.002C29.023 45.002 30.684 37.522 33.548 33C36.413 28.478 37.928 24.115 35.121 18.682" stroke="#FFC700" stroke-width="4" stroke-linecap="round" stroke-linejoin="round"/>
<path d="M12 18.037C10.678 16.0172 9.34465 14.0048 8.00002 12C6.55402 9.85501 10.251 7.08201 12 8.96801C13.166 10.226 14.715 12.078 16.647 14.525" stroke="#FFC700" stroke-width="4" stroke-linecap="round"/>
<path d="M16.024 25.64C15.539 19.576 15.934 15.628 17.206 13.795C19.116 11.045 22.663 10.003 26.003 10.003C27.993 10.003 29.809 10.85 31.453 12.544" stroke="#FFC700" stroke-width="4" stroke-linecap="round" stroke-linejoin="round"/>
<path d="M42 12.613C42.586 14.649 41.63 16.51 38.684 16.931C35.739 17.352 33.531 18.833 31.939 20.079C30.346 21.325 27.499 25.105 26.936 27.002C26.374 28.9 23.16 27.155 22.297 26.397C21.434 25.639 20.585 23.981 22.297 22.246C24.009 20.511 23.638 20.165 23.638 18.406C23.638 16.646 33 10.826 38.273 10.294C39.445 10.226 41.415 10.576 42 12.613V12.613Z" stroke="#FFC700" stroke-width="4"/>
<path d="M36.613 10.717C36.291 11.822 36.291 12.857 36.613 13.824C36.935 14.791 37.626 15.826 38.684 16.931M24.008 4.00001V9.26301V4.00001ZM21.307 10.718C18.289 6.92501 15.856 4.80801 14.007 4.36801L21.307 10.718ZM18.004 7.02901L18.994 2.96201L18.004 7.02901Z" stroke="#FFC700" stroke-width="4" stroke-linecap="round"/>
</svg>
