<svg width="44" height="40" viewBox="0 0 44 40" fill="none" xmlns="http://www.w3.org/2000/svg">
<path d="M21.9999 2.66666V13.5M9.17544 37.3333C12.6681 37.3333 15.4999 34.4408 15.4999 30.8767V9.72349C15.4999 8.21982 14.3039 6.99999 12.8306 6.99999C12.3864 6.99999 11.9531 7.11266 11.5653 7.32499L11.2836 7.50482C8.12027 9.79932 6.01427 13.24 3.90827 20.1235C2.99827 23.0918 2.53027 26.5412 2.50427 30.4693C2.47827 34.0985 5.23644 37.0863 8.73777 37.3182L9.1776 37.3333H9.17544ZM34.8266 37.3333C31.3318 37.3333 28.4999 34.4408 28.4999 30.8767V9.72349C28.4999 8.21982 29.6959 6.99999 31.1714 6.99999C31.6134 6.99999 32.0489 7.11266 32.4368 7.32499L32.7184 7.50482C35.8818 9.79932 37.9878 13.24 40.0959 20.1235C41.0059 23.0918 41.4739 26.5412 41.4999 30.4693C41.5259 34.0985 38.7678 37.0863 35.2643 37.3182L34.8266 37.3333ZM15.4999 20C17.2238 20 18.8771 19.3152 20.0961 18.0962C21.3151 16.8772 21.9999 15.2239 21.9999 13.5C21.9999 15.2239 22.6848 16.8772 23.9037 18.0962C25.1227 19.3152 26.776 20 28.4999 20H15.4999Z" stroke="white" stroke-width="4.33333" stroke-linecap="round" stroke-linejoin="round"/>
</svg>
